<svg width="800" height="800" viewBox="0 0 800 800" fill="none" xmlns="http://www.w3.org/2000/svg">
<path d="M558.333 118.666V66.6665C558.333 52.9998 547 41.6665 533.333 41.6665C519.667 41.6665 508.333 52.9998 508.333 66.6665V116.667H291.667V66.6665C291.667 52.9998 280.333 41.6665 266.667 41.6665C253 41.6665 241.667 52.9998 241.667 66.6665V118.666C151.667 127 108 180.666 101.333 260.333C100.667 270 108.667 278 118 278H682C691.667 278 699.667 269.666 698.667 260.333C692 180.666 648.333 127 558.333 118.666Z" fill="#63B4FF"/>
<path d="M666.667 328H133.333C115 328 100 343 100 361.333V566.667C100 666.667 150 733.333 266.667 733.333H533.333C650 733.333 700 666.667 700 566.667V361.333C700 343 685 328 666.667 328ZM307 607C303.667 610 300 612.333 296 614C292 615.667 287.667 616.667 283.333 616.667C279 616.667 274.667 615.667 270.667 614C266.667 612.333 263 610 259.667 607C253.667 600.667 250 592 250 583.333C250 574.667 253.667 566 259.667 559.667C263 556.667 266.667 554.333 270.667 552.667C278.667 549.333 288 549.333 296 552.667C300 554.333 303.667 556.667 307 559.667C313 566 316.667 574.667 316.667 583.333C316.667 592 313 600.667 307 607ZM314 479.333C312.333 483.333 310 487 307 490.333C303.667 493.333 300 495.667 296 497.333C292 499 287.667 500 283.333 500C279 500 274.667 499 270.667 497.333C266.667 495.667 263 493.333 259.667 490.333C256.667 487 254.333 483.333 252.667 479.333C251 475.333 250 471 250 466.667C250 462.333 251 458 252.667 454C254.333 450 256.667 446.333 259.667 443C263 440 266.667 437.667 270.667 436C278.667 432.667 288 432.667 296 436C300 437.667 303.667 440 307 443C310 446.333 312.333 450 314 454C315.667 458 316.667 462.333 316.667 466.667C316.667 471 315.667 475.333 314 479.333ZM423.667 490.333C420.333 493.333 416.667 495.667 412.667 497.333C408.667 499 404.333 500 400 500C395.667 500 391.333 499 387.333 497.333C383.333 495.667 379.667 493.333 376.333 490.333C370.333 484 366.667 475.333 366.667 466.667C366.667 458 370.333 449.333 376.333 443C379.667 440 383.333 437.667 387.333 436C395.333 432.333 404.667 432.333 412.667 436C416.667 437.667 420.333 440 423.667 443C429.667 449.333 433.333 458 433.333 466.667C433.333 475.333 429.667 484 423.667 490.333Z" fill="#63B4FF"/>
</svg>
