<svg width="800" height="800" viewBox="0 0 800 800" fill="none" xmlns="http://www.w3.org/2000/svg">
<path d="M694.333 267L476 92.3333C433.333 58.3333 366.667 58 324.333 92L106 267C74.6667 292 55.6667 342 62.3334 381.333L104.333 632.667C114 689 166.333 733.333 223.333 733.333H576.667C633 733.333 686.333 688 696 632.333L738 381C744 342 725 292 694.333 267ZM425 600C425 613.667 413.667 625 400 625C386.333 625 375 613.667 375 600V500C375 486.333 386.333 475 400 475C413.667 475 425 486.333 425 500V600Z" fill="#63B4FF"/>
</svg>
