<svg width="800" height="800" viewBox="0 0 800 800" fill="none" xmlns="http://www.w3.org/2000/svg">
<path d="M283.333 633.333H266.667C133.333 633.333 66.6665 600 66.6665 433.333V266.666C66.6665 133.333 133.333 66.6665 266.667 66.6665H533.333C666.667 66.6665 733.333 133.333 733.333 266.666V433.333C733.333 566.666 666.667 633.333 533.333 633.333H516.667C506.333 633.333 496.333 638.333 490 646.666L440 713.333C418 742.666 382 742.666 360 713.333L310 646.666C304.667 639.333 292.333 633.333 283.333 633.333Z" stroke="#63B4FF" stroke-width="50" stroke-miterlimit="10" stroke-linecap="round" stroke-linejoin="round"/>
<path d="M533.215 366.667H533.515" stroke="#63B4FF" stroke-width="60" stroke-linecap="round" stroke-linejoin="round"/>
<path d="M399.85 366.667H400.149" stroke="#63B4FF" stroke-width="60" stroke-linecap="round" stroke-linejoin="round"/>
<path d="M266.484 366.667H266.783" stroke="#63B4FF" stroke-width="60" stroke-linecap="round" stroke-linejoin="round"/>
</svg>
