<svg width="800" height="800" viewBox="0 0 800 800" fill="none" xmlns="http://www.w3.org/2000/svg">
<path d="M405.333 362.333C402 362 398 362 394.333 362.333C315 359.667 252 294.667 252 214.667C252 133 318 66.6665 400 66.6665C481.667 66.6665 548 133 548 214.667C547.667 294.667 484.667 359.667 405.333 362.333Z" stroke="#63B4FF" stroke-width="50" stroke-linecap="round" stroke-linejoin="round"/>
<path d="M238.667 485.334C158 539.334 158 627.334 238.667 681C330.333 742.334 480.667 742.334 572.333 681C653 627 653 539 572.333 485.334C481 424.333 330.667 424.333 238.667 485.334Z" stroke="#63B4FF" stroke-width="50" stroke-linecap="round" stroke-linejoin="round"/>
</svg>
