<svg width="800" height="800" viewBox="0 0 800 800" fill="none" xmlns="http://www.w3.org/2000/svg">
<path d="M405.333 362.333C401.999 362 397.999 362 394.333 362.333C314.999 359.666 251.999 294.666 251.999 214.666C251.999 133 317.999 66.6663 399.999 66.6663C481.666 66.6663 547.999 133 547.999 214.666C547.666 294.666 484.666 359.666 405.333 362.333Z" fill="white" stroke="#8696BB" stroke-width="50" stroke-linecap="round" stroke-linejoin="round"/>
<path d="M238.667 485.334C158.001 539.334 158.001 627.331 238.667 681C330.334 742.331 480.667 742.331 572.334 681C653 627 653 539 572.334 485.334C481.001 424.334 330.667 424.334 238.667 485.334Z" fill="white" stroke="#8696BB" stroke-width="50" stroke-linecap="round" stroke-linejoin="round"/>
</svg>
